<svg width="72" height="72" viewBox="0 0 72 72" fill="none" xmlns="http://www.w3.org/2000/svg">
<path d="M66.4036 34.6281L52.3488 23.0341C52.1078 22.8354 51.8841 22.7301 51.6242 22.7301C51.0603 22.7301 50.5306 23.2345 50.5306 24.1985V31.0899H32.5291C31.6828 31.0899 30.92 31.9266 30.92 32.923V38.8963C30.92 39.8928 31.683 40.7274 32.5291 40.7274H50.5306V47.6225C50.5306 48.5864 51.0606 49.1602 51.6246 49.1602H51.6043C51.8642 49.1602 52.1189 49.0205 52.3597 48.8215L66.4084 37.2111C66.7858 36.8999 66.9996 36.4237 66.9998 35.9197C67 35.4159 66.7812 34.9395 66.4036 34.6281Z" fill="#27569C"/>
<path d="M55.8073 51.9712C55.5713 51.9712 55.3506 52.1864 55.3472 52.1904L51.9358 55.0042C51.9063 55.0271 51.2128 55.5768 51.2128 56.5896C51.2128 56.8713 51.2128 57.6306 51.2128 57.995H9.94528V14.0239H51.2128C51.2128 14.0239 51.2128 15.0153 51.2128 15.3791C51.2128 16.1993 51.8915 16.7808 51.9212 16.8057L55.6154 19.8531C55.6209 19.8574 55.751 19.9578 55.9009 19.9578C56.0962 19.9578 56.3286 19.8034 56.3286 19.0685V12.6284C56.3286 10.0331 54.6018 8 52.3976 8H9.10151C6.83999 8.0002 5 10.0765 5 12.6284V58.9881C5 61.6055 6.87784 63.8167 9.10083 63.8173C9.101 63.8173 9.10117 63.8173 9.10151 63.8173H52.3976C52.3979 63.8173 52.3981 63.8173 52.3985 63.8173C54.5657 63.8169 56.3286 61.6507 56.3286 58.9883V53.1761C56.3286 52.1802 56.0452 51.9712 55.8073 51.9712ZM56.153 19.2305C56.1557 19.1795 56.1581 19.1273 56.1581 19.0681C56.1581 19.1213 56.156 19.1761 56.153 19.2305ZM56.1444 19.3343C56.1458 19.3211 56.1475 19.3092 56.1487 19.2954C56.1475 19.3086 56.1458 19.3213 56.1444 19.3343ZM56.1562 53.047C56.1574 53.0903 56.1581 53.1337 56.1581 53.1761C56.1581 53.1309 56.1572 53.0887 56.1562 53.047ZM56.1538 52.9795C56.1541 52.9873 56.1547 52.9954 56.155 53.0034C56.1547 52.995 56.1541 52.9875 56.1538 52.9795Z" fill="#27569C"/>
</svg>
